<?xml version="1.0" encoding="UTF-8" standalone="no"?>
<svg
   xmlns:dc="http://purl.org/dc/elements/1.1/"
   xmlns:cc="http://creativecommons.org/ns#"
   xmlns:rdf="http://www.w3.org/1999/02/22-rdf-syntax-ns#"
   xmlns:svg="http://www.w3.org/2000/svg"
   xmlns="http://www.w3.org/2000/svg"
   id="svg8"
   version="1.1"
   viewBox="0 0 79.374998 79.375002"
   height="300"
   width="300">
  <defs
     id="defs2" />
  <metadata
     id="metadata5">
    <rdf:RDF>
      <cc:Work
         rdf:about="">
        <dc:format>image/svg+xml</dc:format>
        <dc:type
           rdf:resource="http://purl.org/dc/dcmitype/StillImage" />
        <dc:title></dc:title>
      </cc:Work>
    </rdf:RDF>
  </metadata>
  <g
     transform="translate(0,-217.62498)"
     id="layer1">
    <rect
       y="216.6526"
       x="-1.1339293"
       height="80.725334"
       width="80.886909"
       id="rect836"
       style="opacity:1;fill:#005050;fill-opacity:1;fill-rule:nonzero;stroke:none;stroke-width:4.10722971;stroke-linecap:round;stroke-linejoin:round;stroke-miterlimit:4;stroke-dasharray:none;stroke-dashoffset:144.90708923;stroke-opacity:0.96022728;paint-order:normal" />
    <path
       id="path823"
       transform="matrix(0.26458333,0,0,0.26458333,0,217.62498)"
       d="m 153.14062,25.652344 c -3.69164,0.0097 -7.38546,0.184244 -11.07031,0.52539 -3.38385,5.227336 -4.80183,7.439692 3.24331,13.745257 l 4.39536,0.205915 c 32.62244,-1.149773 65.37638,12.40667 87.72071,39.640625 38.03842,46.362409 31.32748,114.559169 -15.01563,152.621089 -0.0269,0.0239 -0.0536,0.048 -0.0801,0.0723 -0.0295,0.0219 -0.0588,0.044 -0.0879,0.0664 C 175.82588,270.49715 107.63787,263.68803 69.646484,217.28711 31.923266,171.21368 38.348749,103.66308 83.847656,65.496094 L 75.744141,53.382812 c -0.03858,0.03155 -0.07863,0.0602 -0.117188,0.0918 C 23.190382,96.452146 15.482631,174.01237 58.433594,226.4707 c 42.711906,52.1664 119.600686,60.01727 172.064456,17.89258 0.29623,-0.16922 0.58014,-0.35914 0.84961,-0.56836 0.0227,-0.0189 0.0496,-0.0272 0.0723,-0.0449 0.0348,-0.029 0.0693,-0.0583 0.10352,-0.0879 0.0302,-0.0245 0.0601,-0.0492 0.0898,-0.0742 0.0276,-0.0227 0.0467,-0.05 0.0742,-0.0723 0.26056,-0.2258 0.50467,-0.4699 0.73047,-0.73046 0.0124,-0.0149 0.0248,-0.0299 0.0371,-0.0449 C 283.99851,199.55773 291.3747,122.67996 248.62891,70.580078 224.27109,40.892013 188.82657,25.558131 153.14062,25.652344 Z"
       style="color:#000000;font-style:normal;font-variant:normal;font-weight:normal;font-stretch:normal;font-size:medium;line-height:normal;font-family:sans-serif;font-variant-ligatures:normal;font-variant-position:normal;font-variant-caps:normal;font-variant-numeric:normal;font-variant-alternates:normal;font-feature-settings:normal;text-indent:0;text-align:start;text-decoration:none;text-decoration-line:none;text-decoration-style:solid;text-decoration-color:#000000;letter-spacing:normal;word-spacing:normal;text-transform:none;writing-mode:lr-tb;direction:ltr;text-orientation:mixed;dominant-baseline:auto;baseline-shift:baseline;text-anchor:start;white-space:normal;shape-padding:0;clip-rule:nonzero;display:inline;overflow:visible;visibility:visible;opacity:1;isolation:auto;mix-blend-mode:normal;color-interpolation:sRGB;color-interpolation-filters:linearRGB;solid-color:#000000;solid-opacity:1;vector-effect:none;fill:#eaeffc;fill-opacity:0.95454544;fill-rule:nonzero;stroke:#eaeffc;stroke-width:23.0551184;stroke-linecap:round;stroke-linejoin:round;stroke-miterlimit:4;stroke-dasharray:none;stroke-dashoffset:144.90708923;stroke-opacity:1;paint-order:normal;color-rendering:auto;image-rendering:auto;shape-rendering:auto;text-rendering:auto;enable-background:accumulate" />
    <path
       id="rect827"
       d="m 3.1161743,232.09936 22.7198727,-4.2998 0.921598,23.1048 z"
       style="opacity:1;fill:#eaeffc;fill-opacity:1;fill-rule:nonzero;stroke:#eaeffc;stroke-width:2.51807237;stroke-linecap:round;stroke-linejoin:round;stroke-miterlimit:4;stroke-dasharray:none;stroke-dashoffset:144.90708923;stroke-opacity:0.96022725;paint-order:normal" />
  </g>
</svg>
